<?xml version="1.0" encoding="UTF-8" standalone="no"?>
<svg
   width="50"
   height="50"
   viewBox="0 0 50 50"
   fill="none"
   version="1.1"
   id="svg6"
   sodipodi:docname="favicon-v2.svg"
   inkscape:version="1.2 (dc2aedaf03, 2022-05-15)"
   xmlns:inkscape="http://www.inkscape.org/namespaces/inkscape"
   xmlns:sodipodi="http://sodipodi.sourceforge.net/DTD/sodipodi-0.dtd"
   xmlns="http://www.w3.org/2000/svg"
   xmlns:svg="http://www.w3.org/2000/svg">
  <defs
     id="defs10" />
  <sodipodi:namedview
     id="namedview8"
     pagecolor="#ffffff"
     bordercolor="#000000"
     borderopacity="0.25"
     inkscape:showpageshadow="2"
     inkscape:pageopacity="0.0"
     inkscape:pagecheckerboard="0"
     inkscape:deskcolor="#d1d1d1"
     showgrid="false"
     showguides="true"
     inkscape:zoom="10.58"
     inkscape:cx="29.489603"
     inkscape:cy="26.512287"
     inkscape:window-width="1358"
     inkscape:window-height="694"
     inkscape:window-x="-4"
     inkscape:window-y="3"
     inkscape:window-maximized="0"
     inkscape:current-layer="svg6">
    <sodipodi:guide
       position="3,28.544423"
       orientation="1,0"
       id="guide399"
       inkscape:locked="false" />
    <sodipodi:guide
       position="46.6051,27.6572"
       orientation="1,0"
       id="guide401"
       inkscape:locked="false" />
    <sodipodi:guide
       position="14.650284,38"
       orientation="0,-1"
       id="guide403"
       inkscape:locked="false" />
    <sodipodi:guide
       position="11.531191,11.5225"
       orientation="0,-1"
       id="guide405"
       inkscape:locked="false" />
    <sodipodi:guide
       position="25,50"
       orientation="1,0"
       id="guide410"
       inkscape:locked="false" />
  </sodipodi:namedview>
  <rect
     width="50"
     height="50"
     rx="2"
     fill="#282828"
     id="rect2" />
  <path
     d="M 12.6808,31.6512 V 24.4113 H 33.325 c 0.8274,0 1.5169,-0.1241 2.0685,-0.3723 0.5792,-0.2758 0.8688,-0.8412 0.8688,-1.6962 0,-0.8826 -0.2896,-1.448 -0.8688,-1.6963 -0.5516,-0.2482 -1.2411,-0.3723 -2.0685,-0.3723 H 13.3428 V 38.4775 H 3 V 12 h 28.7115 c 2.0685,0 3.9992,0.1517 5.7919,0.4551 1.8204,0.2758 3.4062,0.786 4.7577,1.5307 1.3514,0.7447 2.4133,1.7928 3.1856,3.1442 0.7722,1.3515 1.1584,3.089 1.1584,5.2128 0,2.1237 -0.3862,3.8061 -1.1584,5.0472 -0.7723,1.2412 -1.8342,2.1651 -3.1856,2.7719 -1.3515,0.6068 -2.9373,1.0067 -4.7577,1.1997 -1.7927,0.1931 -3.7234,0.2896 -5.7919,0.2896 z"
     fill="#ffffff"
     id="path4"
     inkscape:label="path4"
     style="display:none" />
  <g
     aria-label="f"
     id="text347"
     style="font-size:40.3467px;font-family:'Akira Expanded';-inkscape-font-specification:'Akira Expanded, ';text-align:center;text-anchor:middle;fill:#ffffff;stroke-width:15.13"
     transform="translate(0.19745065)">
    <path
       d="M 8.6579597,38.477521 H 18.981041 V 31.365628 H 38.366369 V 23.623317 H 18.981041 V 20.392429 H 40.947139 V 12 H 8.6579597 Z"
       id="path407" />
  </g>
</svg>
